<?xml version="1.0" encoding="UTF-8"?>
<svg xmlns="http://www.w3.org/2000/svg" xmlns:xlink="http://www.w3.org/1999/xlink" viewBox="0 0 792 612">
  <g id="black_beans" data-name="black beans">
    <image id="black_beans-2" data-name="black_beans" width="228" height="229" transform="translate(263.77 208.86) rotate(12.58) scale(1.21 .6)" xlink:href="images/Group 18.png"/>
  </g>
  <g id="chicken">
    <image id="chicken-2" data-name="chicken" width="479" height="468" transform="translate(291.75 255.62) rotate(1.55) scale(.38 .26)" xlink:href="images/Veggies (1).png"/>
  </g>
  <g id="veggies_filling_option" data-name="veggies filling option">
    <image id="veggies" width="164" height="183" transform="translate(298 240.31) rotate(7.35) scale(1.19 .63)" xlink:href="images/Veggies (15) 1.png"/>
  </g>
  <g id="sour_cream" data-name="sour cream">
    <image id="sour_cream-2" data-name="sour_cream" width="1545" height="2000" transform="translate(284.82 441.49) rotate(-95.59) scale(.14 .19)" xlink:href="images/Veggies (9).png"/>
  </g>
  <g id="cheese_topping" data-name="cheese topping">
    <image id="cheese" width="924" height="993" transform="translate(172.22 143.09) scale(.67 .47)" xlink:href="images/Shredded Cheese.png"/>
  </g>
  <g id="hot_salsa" data-name="hot salsa">
    <image id="hot_salsa-2" data-name="hot_salsa" width="1545" height="2000" transform="translate(546.82 472.83) rotate(169.41) scale(.18 .16)" xlink:href="images/Veggies (11).png"/>
  </g>
  <g id="corn_topping" data-name="corn topping">
    <image id="corn" width="1545" height="2000" transform="translate(223.65 177.86) scale(.24 .12)" xlink:href="images/Veggies (7).png"/>
  </g>
  <g id="gauc_topping" data-name="gauc topping">
    <image id="guac" width="1545" height="2000" transform="translate(259.64 218.81) rotate(1.54) scale(.17 .11)" xlink:href="images/Veggies (13).png"/>
  </g>
  <g id="queso_topping" data-name="queso topping">
    <image id="queso" width="1545" height="2000" transform="translate(337.04 123.45) rotate(9.2) scale(.18 .12)" xlink:href="images/Veggies (3).png"/>
  </g>
  <g id="salsa_topping" data-name="salsa topping">
    <image id="mild_salsa" width="210" height="120" transform="translate(325.79 275.3) rotate(-3.87) scale(.61 .52)" xlink:href="images/Veggies (5).png"/>
  </g>
  <g id="green_salsa_topping" data-name="green salsa topping">
    <image id="green_salsa" width="1545" height="2000" transform="translate(258.14 120.47) scale(.19 .14)" xlink:href="../Downloads/Veggies (6).png"/>
  </g>
</svg>